<svg width="584.92" height="579.47" version="1.1" viewBox="0 0 584.92 579.47" xmlns="http://www.w3.org/2000/svg">
 <g transform="translate(-1139.9 -337.45)">
  <path d="m1139.9 774.6 223.94-235.9 90.468 92.253 154.17-159.88-33.903-32.119 150.25-39.257-31.762 153.1-35.688-35.688-201.28 213.77-93.502-92.788-130.62 138.11z" fill="#5c5cff"/>
  <g fill="#ff6a6a">
   <path d="m1388.9 803.53c-37.921-0.89306-58.768 29.476-58.132 57.566 1.7667 32.749 33.852 55.454 56.618 55.831 13.859 0.16909 55.304-8.2245 55.622-60.551-0.902-28.455-20.716-51.741-54.107-52.846z"/>
   <path d="m1334.9 774.46 103.97 1.0094c0.053-15.54 1.7176-27.856 5.8041-35.329l-80.247-81.257c-21.583 37.835-30.819 76.396-29.525 115.58z"/>
   <path d="m1303.1 513.28-49.965 39.367-54.508-38.862c4.9634-82.56 52.371-166.39 170.08-176.14 124.11-4.5976 181.98 73.64 190.27 162.01l-104.47 111.03-30.282-31.291c34.637-25.041 56.222-108.29-22.712-137.28-59.364-16.1-90.453 24.063-98.417 71.163z"/>
  </g>
 </g>
</svg>
